<svg width="60" height="61" viewBox="0 0 60 61" fill="none" xmlns="http://www.w3.org/2000/svg">
<g clip-path="url(#clip0_3_4599)">
<path d="M38.4257 29.0185L41.4609 24.249L45.7968 22.081C46.375 21.9365 47.6179 21.7342 47.9648 22.081C48.3117 22.4279 53.3125 29.1631 55.7695 32.4873L57.9375 36.3896C57.5039 37.2568 56.55 39.0779 56.2031 39.4248C55.8562 39.7717 52.5898 41.3037 51 42.0264C50.1328 42.1709 48.3117 42.46 47.9648 42.46C47.6179 42.46 43.4843 36.9678 41.4609 34.2217L39.1845 30.3193L38.4257 29.0185Z" fill="#009ADB"/>
<path d="M47.9648 42.46C47.6179 42.46 43.4843 36.9678 41.4609 34.2217L39.1845 30.3193H37.5586H33.2226C32.789 30.3193 30.6211 31.1865 29.7539 31.6201L27.1523 32.9209C26.2851 33.3545 25.4179 34.2217 24.9843 34.6553C24.5507 35.0889 23.6836 36.3896 23.6836 36.8232C23.6836 37.2568 23.6836 38.124 24.1172 38.5576C24.5507 38.9912 25.4179 39.4248 25.8515 39.4248H28.4531C29.1468 39.4248 31.0547 38.5576 31.9218 38.124C32.2109 38.2686 32.8757 38.6443 33.2226 38.9912C33.5695 39.3381 36.5468 41.4482 37.9922 42.46L41.4609 45.9287C42.039 46.2178 43.282 46.7092 43.6289 46.3623C43.9757 46.0154 45.2187 45.0615 45.7968 44.6279L47.0976 43.7607L47.9648 42.46Z" fill="#009ADB"/>
<path d="M13.2773 47.2295C13.2773 47.9232 14.4336 49.2529 15.0117 49.831L18.0468 52.4326L19.7812 53.7334L21.5156 55.4678C22.0937 55.7568 23.25 56.4217 23.25 56.7685C23.25 57.1154 24.9843 57.4912 25.8515 57.6357C26.2851 57.3467 27.239 56.6818 27.5859 56.335C28.0195 55.9014 28.0195 55.9014 28.0195 55.0342C28.0195 54.167 28.0195 53.2998 27.5859 52.4326C27.1523 51.5654 27.1523 49.831 26.7187 49.3975C26.2851 48.9639 24.5507 48.0967 24.5507 47.6631C24.5507 47.2295 23.25 45.4951 22.8164 45.0615C22.3828 44.6279 21.5156 42.8936 21.082 42.46C20.6484 42.0264 19.3476 41.1592 18.4804 41.5928C17.6133 42.0264 15.0117 44.1943 14.5781 44.6279C14.2312 44.9748 13.5664 46.5068 13.2773 47.2295Z" fill="#009ADB"/>
<path d="M21.5156 4.7373C24.1172 8.35059 31.575 15.4037 40.5937 14.71L38.8593 19.9131L36.2578 22.081L28.0195 24.6826L21.5156 22.5146L17.6133 15.5771L18.0468 9.94043L20.2148 6.03809L21.5156 4.7373Z" fill="#009ADB"/>
<path d="M29.0299 15.9887C28.5722 15.9887 28.0109 15.9217 27.6265 15.4934C27.4929 15.3429 27.3758 15.2024 27.2623 15.0853C26.3467 14.1217 24.7696 15.46 25.7253 16.7111L25.9558 17.0089C26.1061 17.1964 26.3768 17.4138 26.7644 17.6614C27.142 17.9021 27.563 18.0761 28.0308 18.1798V19.8326C28.0308 20.4013 28.4951 20.8697 29.0633 20.8697C29.6347 20.8697 30.1192 20.4013 30.1192 19.8326V18.1699C30.8677 17.9961 31.5093 17.6313 32.0338 17.0793C32.5616 16.5271 32.8256 15.7946 32.8256 14.8812C32.8256 14.259 32.7055 13.7405 32.4648 13.3222C32.2242 12.9073 31.9302 12.6163 31.5794 12.4523C31.2252 12.2883 30.841 12.1444 30.4165 12.0208C29.9956 11.8971 29.6113 11.81 29.257 11.7565C28.9063 11.7062 28.6123 11.599 28.3716 11.442C28.131 11.2812 28.0108 11.0739 28.0108 10.8162C28.0108 9.58518 29.8151 9.73564 30.6102 10.4048C31.7831 11.3917 33.0962 9.58518 31.7363 8.56482L31.5792 8.4242C31.4722 8.34076 31.2852 8.23693 31.0145 8.10639C30.7472 7.97607 30.4464 7.87893 30.1191 7.80861V6.80842V6.37354C30.1191 5.80471 29.6545 5.33643 29.0833 5.33643C28.5151 5.33643 28.0474 5.80459 28.0474 6.37354V7.79197C27.2855 7.94256 26.654 8.32072 26.2164 8.87924C25.7753 9.44807 25.5515 10.0771 25.5515 10.7794C25.5515 11.4855 25.7153 12.0643 26.0426 12.5226C26.37 12.9807 26.7678 13.302 27.2388 13.4894C27.7067 13.6768 28.1744 13.8274 28.6422 13.9376C29.1133 14.0515 29.511 14.1752 29.8383 14.3191C30.1658 14.4596 30.3295 14.6571 30.3295 14.9146C30.3297 15.6305 29.8954 15.9887 29.0299 15.9887Z" fill="#095FAF"/>
<path d="M58.7612 34.2509L49.1322 21.9172C48.4835 21.0842 47.5002 20.6064 46.4344 20.6064C45.6822 20.6064 44.97 20.8453 44.3724 21.2987L38.0706 26.1024C37.3493 26.6521 36.8885 27.45 36.773 28.3488C36.7557 28.4827 36.7475 28.6163 36.7461 28.7492C34.3438 28.5672 31.8625 28.7502 29.4527 30.3165L29.3447 30.3867L23.2487 29.4545C23.2613 29.2434 23.2545 29.0298 23.2267 28.8154C23.1104 27.9187 22.6504 27.1228 21.9305 26.5739L15.6272 21.7746C14.1504 20.6452 12.0151 20.9196 10.8668 22.3877L8.57133 25.3285C8.16961 25.843 8.26126 26.5856 8.77571 26.9871C9.29028 27.3888 10.0329 27.2971 10.4345 26.7827L12.7293 23.8429C13.0766 23.3988 13.7462 23.3114 14.1934 23.6534L20.4981 28.4539C20.7116 28.6167 20.8482 28.8529 20.8827 29.1194C20.9173 29.3863 20.8452 29.6504 20.6807 29.8617L11.0497 42.1974C10.7047 42.6405 10.0343 42.7271 9.58782 42.3886L3.28582 37.5843C3.07114 37.4207 2.93391 37.1836 2.89957 36.9167C2.86547 36.6512 2.93754 36.3888 3.10336 36.1769L4.74071 34.0794C5.14231 33.5649 5.05079 32.8223 4.53621 32.4208C4.02176 32.019 3.27915 32.1107 2.87743 32.6252L1.24102 34.7216C0.683559 35.4342 0.440043 36.3207 0.555356 37.2179C0.670786 38.1166 1.1318 38.9144 1.85297 39.464L8.15696 44.2699C8.77044 44.7352 9.49547 44.9604 10.2158 44.9602C10.6324 44.9602 11.0469 44.8837 11.4377 44.7361L12.2536 45.8534C11.8102 46.6624 11.741 47.6341 12.0974 48.572C12.6068 49.9128 13.8088 50.822 15.1092 50.8652C15.1495 51.0562 15.2054 51.2471 15.2817 51.4361C15.8059 52.7349 17.0029 53.619 18.289 53.6771C18.2948 53.7109 18.2993 53.7447 18.3062 53.7785C18.5509 54.9677 19.4632 55.9832 20.6303 56.3659C20.9276 56.4634 21.2273 56.5134 21.5242 56.5222C21.6379 57.001 21.8755 57.4634 22.2408 57.8694C22.8102 58.5023 23.6415 58.9073 24.5535 58.9072C25.2157 58.9072 25.9206 58.6923 26.5981 58.197L27.9362 59.4479C28.6179 60.084 29.4759 60.4016 30.3258 60.4016C31.1878 60.4014 32.0412 60.0747 32.6929 59.4225C33.0815 59.0335 33.3825 58.5707 33.5773 58.0836C33.9094 58.1845 34.2338 58.2323 34.545 58.2323C35.4215 58.2322 36.1949 57.8621 36.7491 57.2913C37.2025 56.8243 37.5271 56.2026 37.6706 55.5399C37.7186 55.5424 37.7665 55.5444 37.8147 55.5448C37.8265 55.545 37.8381 55.545 37.8499 55.545C38.782 55.545 39.6764 55.1839 40.3081 54.5513C40.7506 54.1084 41.055 53.5631 41.2003 52.9678C41.4258 53.0117 41.6522 53.0347 41.8781 53.0347C42.1625 53.0347 42.4463 52.9994 42.7257 52.9278C43.8654 52.6358 44.7454 51.7452 45.0223 50.6034C45.2779 49.5499 45.0145 48.44 44.2977 47.4312C46.1537 45.938 46.9044 45.2025 47.7523 43.8271C48.3314 44.2531 49.0364 44.4879 49.7815 44.4879C50.5359 44.4879 51.2495 44.2473 51.8427 43.7936L58.1484 38.9925C58.8677 38.4441 59.3279 37.6483 59.4442 36.7515C59.5604 35.8538 59.3183 34.9661 58.7612 34.2509ZM15.7275 48.2593C15.5464 48.4229 15.3709 48.5059 15.2056 48.5059C14.8662 48.5059 14.4715 48.1664 14.3067 47.7327C14.1572 47.3388 14.2269 47.0097 14.5147 46.7541L14.5185 46.7509L14.5221 46.7477L18.5034 43.2089C18.8365 42.9134 19.1716 42.7572 19.4729 42.7572C19.9138 42.7572 20.2434 43.092 20.3631 43.4033C20.4911 43.7357 20.4141 44.0323 20.1356 44.2842L19.4416 44.9101L19.4398 44.9117C19.4364 44.9146 19.4331 44.9177 19.4297 44.9207C19.4048 44.9432 19.3792 44.9664 19.3539 44.9893L15.7275 48.2593ZM18.9456 51.0839C18.7662 51.2424 18.5952 51.3193 18.4232 51.3193C18.0645 51.3193 17.6474 50.9821 17.4736 50.5515C17.2821 50.0771 17.5093 49.8581 17.5812 49.7887C17.6273 49.7444 17.6828 49.6913 17.7406 49.6295L17.7416 49.6285L17.7538 49.6177C17.9811 49.4146 19.9831 47.6059 20.9395 46.7416L21.0108 46.6774C21.3349 46.3929 21.6633 46.2425 21.9608 46.2425C22.43 46.2425 22.7794 46.6016 22.9054 46.9351C23.0306 47.2667 22.9555 47.557 22.6829 47.797L22.4378 48.0126C22.4359 48.0143 22.4341 48.0155 22.4324 48.0172L22.4306 48.0189L18.9456 51.0839ZM22.468 53.6347C22.4517 53.6493 22.4364 53.6647 22.4206 53.6796L22.1433 53.9298C21.8968 54.1524 21.65 54.2131 21.3664 54.1201C21.008 54.0025 20.6948 53.6586 20.6215 53.3023C20.5577 52.9926 20.6817 52.7055 20.9965 52.428L21.3908 52.0835C21.4008 52.0748 21.4093 52.0653 21.4189 52.0564L24.002 49.7847C24.621 49.2376 25.234 49.1827 25.642 49.6389C25.6995 49.7032 26.186 50.2816 25.592 50.8182L24.0056 52.2497C23.9886 52.2647 23.9714 52.2781 23.9545 52.2935C23.9486 52.299 23.9436 52.3053 23.9378 52.3107L22.4862 53.6205C22.4803 53.6255 22.4738 53.6294 22.468 53.6347ZM23.998 56.2885C23.8734 56.1502 23.6332 55.7918 24.0273 55.4132L25.6098 53.9853C25.7296 53.8829 25.845 53.8017 25.9531 53.7459C25.958 53.7433 25.963 53.7407 25.9679 53.7382C26.6058 53.3975 26.9515 53.7946 27.0424 53.9244C27.1593 54.0912 27.3018 54.419 26.9435 54.7408L25.8593 55.7154C25.8552 55.719 25.8512 55.7227 25.8471 55.7264L25.3771 56.1488C24.6047 56.8421 24.1262 56.4313 23.998 56.2885ZM42.7253 50.0463C42.6526 50.3457 42.439 50.5614 42.1391 50.6383C41.642 50.7656 41.0127 50.4895 40.4366 49.8984C40.3934 49.8506 40.3491 49.8035 40.3028 49.7579L35.8419 45.3484C35.3776 44.8897 34.6294 44.8939 34.1706 45.3581C33.7118 45.8223 33.716 46.5705 34.1802 47.0293L38.6339 51.4317C38.6413 51.4395 38.6489 51.4473 38.6562 51.4551C38.8341 51.6382 38.9331 51.8826 38.9341 52.1472C38.9352 52.4267 38.8293 52.6873 38.6357 52.8812C38.4448 53.0724 38.1592 53.1815 37.8505 53.1815C37.8462 53.1815 37.842 53.1815 37.8376 53.1814C37.5643 53.1788 37.315 53.0873 37.1394 52.9276C37.0655 52.832 36.985 52.7393 36.8965 52.6504L33.6353 49.3852C33.174 48.9236 32.4258 48.9232 31.964 49.3842C31.5022 49.8454 31.5018 50.5936 31.9629 51.0554L35.0556 54.152C35.0929 54.2064 35.1342 54.2591 35.1818 54.3082L35.3134 54.4439C35.483 54.7667 35.3779 55.3107 35.0532 55.6452C34.5524 56.1609 33.8474 55.7062 33.3452 55.2345L31.9486 53.9198C31.4734 53.4724 30.7254 53.495 30.2781 53.9702C29.8307 54.4455 29.8533 55.1934 30.3285 55.6408L31.3954 56.645C31.3979 56.6475 31.4 56.6502 31.4026 56.6525C31.427 56.6752 31.4637 56.7097 31.4656 56.8289C31.4701 57.1058 31.2872 57.4856 31.0208 57.7522C30.632 58.1414 29.9855 58.1274 29.5497 57.7207L28.3801 56.6275L28.5231 56.499C29.6828 55.4577 29.8699 53.8415 28.9782 52.5686C28.6881 52.1544 28.3247 51.8326 27.917 51.6092C28.4917 50.4759 28.331 49.0999 27.4035 48.0631C26.8802 47.4781 26.1411 47.0786 25.3161 46.9902C25.2926 46.6937 25.2277 46.3948 25.1164 46.1002C24.715 45.0373 23.8226 44.255 22.7724 43.9841C22.8161 43.5132 22.751 43.0271 22.5691 42.5543C22.0717 41.262 20.8276 40.3937 19.4731 40.3937C18.5848 40.3937 17.7073 40.7557 16.9343 41.4413L13.9171 44.1233L13.2538 43.215L22.2498 31.6926L26.3629 32.3217L25.7406 32.7254C22.4078 34.8877 22.1638 37.4025 23.0469 39.035C23.7537 40.3418 25.1643 41.0887 26.6616 41.0887C27.278 41.0886 27.9094 40.962 28.5121 40.6957C28.528 40.6885 28.5438 40.6812 28.5593 40.6735L31.6751 39.1286L33.4738 40.7663C33.4756 40.768 33.4774 40.7691 33.4791 40.7707C33.4808 40.7723 33.4822 40.7739 33.484 40.7756L41.7975 48.1692C42.5099 48.8026 42.8568 49.5043 42.7253 50.0463ZM42.6259 45.743L35.0598 39.0141L32.6692 36.8375C32.3092 36.5095 31.7848 36.436 31.3486 36.6525L27.5348 38.5435C26.4987 38.9892 25.4795 38.5651 25.1256 37.9108C24.6393 37.0118 25.3677 35.7846 27.0268 34.7083L30.7399 32.2988C32.7532 30.9901 34.8652 30.8891 37.7542 31.2243L46.1196 41.9431C45.2368 43.5284 44.768 44.0316 42.6259 45.743ZM57.1002 36.4476C57.0658 36.7137 56.9291 36.95 56.7161 37.1124L50.4088 41.9146C50.1823 42.088 49.9427 42.1243 49.7817 42.1243C49.4502 42.1242 49.1459 41.9783 48.9476 41.7247L39.32 29.3888C39.155 29.1778 39.083 28.9155 39.1172 28.65C39.1515 28.383 39.2886 28.1457 39.5034 27.982L45.8032 23.1798C46.0317 23.0064 46.2724 22.97 46.4343 22.97C46.7661 22.97 47.0697 23.1154 47.2682 23.3703L56.8972 35.7042C57.0627 35.9168 57.1349 36.1807 57.1002 36.4476Z" fill="#095FAF"/>
<path d="M23.0659 24.4088C24.9213 25.4099 27.0172 25.9391 29.127 25.9391C36.1609 25.9391 41.8834 20.2102 41.8834 13.1685C41.8834 8.25387 39.0143 3.72176 34.5748 1.62258C32.8646 0.812227 31.0318 0.401367 29.127 0.401367C22.0948 0.401367 16.3739 6.12867 16.3739 13.1685C16.3739 17.8637 18.9373 22.1704 23.0659 24.4088ZM29.127 2.7648C30.6789 2.7648 32.1713 3.09914 33.5636 3.75867C37.1818 5.46949 39.5198 9.16313 39.5198 13.1685C39.5198 18.907 34.8576 23.5757 29.1272 23.5757C27.4078 23.5757 25.7 23.1444 24.1904 22.33C20.8269 20.5062 18.7374 16.9957 18.7374 13.1685C18.7374 7.43191 23.3981 2.7648 29.127 2.7648Z" fill="#095FAF"/>
<path d="M5.91889 30.6257C6.1365 30.7993 6.39678 30.8837 6.65529 30.8837C7.0024 30.8837 7.34635 30.7315 7.57967 30.439L7.59303 30.4222C8.00014 29.9121 7.91658 29.1686 7.40646 28.7615C6.89635 28.3546 6.15267 28.4378 5.74568 28.9481L5.73232 28.9649C5.32521 29.475 5.40877 30.2186 5.91889 30.6257Z" fill="#095FAF"/>
</g>
<defs>
<clipPath id="clip0_3_4599">
<rect width="60" height="60" fill="white" transform="translate(0 0.401367)"/>
</clipPath>
</defs>
</svg>
