<svg width="48" height="49" viewBox="0 0 48 49" fill="none" xmlns="http://www.w3.org/2000/svg">
<g clip-path="url(#clip0_3_4621)">
<path d="M35.2323 45.6828C34.7462 45.6828 34.3465 46.0526 34.2993 46.5264H27.2444L26.1314 39.8243L27.3685 38.5872C27.5443 38.4115 27.6431 38.173 27.6431 37.9243C27.6431 37.6757 27.5443 37.4373 27.3685 37.2614L26.2739 36.1668H28.1443C30.197 36.1668 32.1072 37.1857 33.2537 38.8923C33.5424 39.3221 34.125 39.4363 34.5546 39.1477C34.9844 38.8589 35.0988 38.2765 34.81 37.8466C33.3263 35.6382 30.8617 34.3136 28.2074 34.2927C29.1155 33.287 29.6695 31.9556 29.6695 30.497V29.122C29.6695 25.9956 27.1261 23.4521 23.9997 23.4521C20.8733 23.4521 18.3299 25.9956 18.3299 29.122V30.497C18.3299 31.9559 18.884 33.2876 19.7925 34.2934C15.3962 34.3273 11.8298 37.913 11.8298 42.3172V47.4639C11.8298 47.9816 12.2495 48.4014 12.7673 48.4014H35.2321C35.7498 48.4014 36.1696 47.9816 36.1696 47.4639V46.6203C36.1698 46.1026 35.75 45.6828 35.2323 45.6828ZM24.0107 39.2935L22.6414 37.9243L24.0107 36.5552L25.3799 37.9243L24.0107 39.2935ZM23.5254 41.4204C23.6742 41.5106 23.8422 41.5568 24.0106 41.5568C24.1789 41.5568 24.347 41.5106 24.4957 41.4204L25.3437 46.5264H22.6774L23.5254 41.4204ZM20.2051 29.122C20.2051 27.0296 21.9074 25.3271 23.9999 25.3271C26.0924 25.3271 27.7947 27.0295 27.7947 29.122V30.497C27.7947 32.5894 26.0924 34.2918 23.9999 34.2918C21.9074 34.2918 20.2051 32.5895 20.2051 30.497V29.122ZM13.705 42.3172C13.705 38.9258 16.4641 36.1668 19.8554 36.1668H21.7473L20.6526 37.2614C20.4769 37.4373 20.378 37.6757 20.378 37.9243C20.378 38.173 20.4769 38.4115 20.6526 38.5872L21.8898 39.8243L20.7768 46.5264H13.7049V42.3172H13.705Z" fill="#095FAF"/>
<path d="M19.0312 1.44189C19.3087 1.44189 25.6218 1.67314 28.7437 1.78877V11.8481L19.0312 11.5013V1.44189Z" fill="#009ADB"/>
<path d="M41.2312 1.78877L36.375 10.8075H46.7812L41.9249 2.13564L41.2312 1.78877Z" fill="#009ADB"/>
<path d="M19.0312 1.44189C19.3087 1.44189 25.6218 1.67314 28.7437 1.78877V11.8481L19.0312 11.5013V1.44189Z" stroke="black" stroke-linecap="round" stroke-linejoin="round"/>
<path d="M41.2312 1.78877L36.375 10.8075H46.7812L41.9249 2.13564L41.2312 1.78877Z" stroke="black" stroke-linecap="round" stroke-linejoin="round"/>
<path d="M11.9892 6.39691C11.9892 3.09147 9.3 0.402344 5.99466 0.402344C2.68931 0.402344 0 3.09156 0 6.39691C0 9.70225 2.68922 12.3915 5.99456 12.3915C9.29991 12.3915 11.9892 9.70234 11.9892 6.39691ZM1.875 6.39691C1.875 4.12544 3.723 2.27734 5.99456 2.27734C8.26613 2.27734 10.1141 4.12544 10.1141 6.39691C10.1141 8.66838 8.26613 10.5165 5.99456 10.5165C3.723 10.5165 1.875 8.66847 1.875 6.39691Z" fill="#095FAF"/>
<path d="M18.943 12.3906H29.0572C29.575 12.3906 29.9947 11.9708 29.9947 11.4531V1.33887C29.9947 0.82118 29.575 0.401367 29.0572 0.401367H18.943C18.4252 0.401367 18.0055 0.82118 18.0055 1.33887V11.4531C18.0055 11.9708 18.4252 12.3906 18.943 12.3906ZM19.8805 2.27637H28.1197V10.5156H19.8805V2.27637Z" fill="#095FAF"/>
<path d="M47.8744 10.6121L42.4649 1.24268C42.2975 0.952613 41.988 0.773926 41.653 0.773926C41.3181 0.773926 41.0086 0.952613 40.8412 1.24268L35.4317 10.6121C35.2642 10.9021 35.2642 11.2595 35.4317 11.5496C35.5991 11.8396 35.9086 12.0183 36.2436 12.0183H47.0625C47.3975 12.0183 47.7069 11.8396 47.8744 11.5496C48.0419 11.2595 48.0419 10.9021 47.8744 10.6121ZM37.8673 10.1433L41.6529 3.58643L45.4386 10.1433H37.8673Z" fill="#095FAF"/>
<path d="M24 21.6116C24.5178 21.6116 24.9375 21.1918 24.9375 20.6741V17.9991L24.9755 18.0521C25.1586 18.3079 25.4464 18.4441 25.7387 18.4441C25.9275 18.4441 26.1182 18.3872 26.2836 18.2689C26.7046 17.9676 26.8016 17.382 26.5003 16.961L24.7625 14.5326C24.5864 14.2866 24.3025 14.1406 24.0001 14.1406C23.6976 14.1406 23.4138 14.2866 23.2377 14.5326L21.4999 16.961C21.1986 17.382 21.2956 17.9676 21.7166 18.2689C22.1376 18.5702 22.7232 18.4733 23.0246 18.0522L23.0625 17.9991V20.6741C23.0625 21.1918 23.4822 21.6116 24 21.6116Z" fill="#095FAF"/>
<path d="M16.2812 29.2044C16.2812 28.6867 15.8615 28.2669 15.3437 28.2669H6.93743V17.9991L6.9754 18.0521C7.15849 18.3079 7.4463 18.4441 7.73862 18.4441C7.92743 18.4441 8.11812 18.3872 8.28349 18.2689C8.70452 17.9676 8.80155 17.382 8.50024 16.961L6.7624 14.5326C6.58633 14.2866 6.30246 14.1406 6.00002 14.1406C5.69758 14.1406 5.41371 14.2866 5.23765 14.5326L3.4998 16.961C3.19849 17.382 3.29552 17.9676 3.71655 18.2689C4.13749 18.5702 4.72315 18.4733 5.02455 18.0522L5.06243 17.9991V29.2044C5.06243 29.7221 5.48215 30.1419 5.99993 30.1419H15.3437C15.8614 30.1419 16.2812 29.7222 16.2812 29.2044Z" fill="#095FAF"/>
<path d="M42.7624 14.5326C42.5863 14.2866 42.3024 14.1406 42 14.1406C41.6976 14.1406 41.4137 14.2866 41.2376 14.5326L39.4998 16.961C39.1985 17.382 39.2955 17.9676 39.7165 18.2689C40.1376 18.5702 40.7232 18.4733 41.0245 18.0522L41.0625 17.9992V28.267H32.6562C32.1384 28.267 31.7187 28.6868 31.7187 29.2045C31.7187 29.7222 32.1384 30.142 32.6562 30.142H42C42.5178 30.142 42.9375 29.7222 42.9375 29.2045V17.9992L42.9755 18.0522C43.1586 18.308 43.4464 18.4442 43.7387 18.4442C43.9275 18.4442 44.1182 18.3873 44.2836 18.269C44.7046 17.9677 44.8016 17.3821 44.5003 16.9611L42.7624 14.5326Z" fill="#095FAF"/>
<path d="M35.2321 43.3389C35.7498 43.3389 36.1696 42.9191 36.1696 42.4014C36.1696 41.8836 35.7498 41.4639 35.2321 41.4639C34.7143 41.4639 34.2946 41.8836 34.2946 42.4014C34.2946 42.9191 34.7143 43.3389 35.2321 43.3389Z" fill="#095FAF"/>
</g>
<defs>
<clipPath id="clip0_3_4621">
<rect width="48" height="48" fill="white" transform="translate(0 0.401367)"/>
</clipPath>
</defs>
</svg>
