<svg width="54" height="55" viewBox="0 0 54 55" fill="none" xmlns="http://www.w3.org/2000/svg">
<g clip-path="url(#clip0_3_4637)">
<path d="M10.7471 13.3042V27.7711C13.4841 26.8588 20.2092 26.6763 25.214 33.2451C26.387 35.7214 28.2638 41.4561 26.387 44.584L31.861 47.712V24.2521L10.7471 13.3042Z" fill="#009ADB"/>
<path d="M53.4532 12.0804L32.4221 0.531941C32.1061 0.358494 31.7229 0.358494 31.4069 0.531941L23.4799 4.88459C23.3126 4.92867 23.1565 5.01272 23.0271 5.13343L10.3762 12.0804C10.0388 12.2653 9.8291 12.6197 9.8291 13.0049V26.9721C7.69501 27.6395 5.7393 28.8165 4.11319 30.4431C-0.12534 34.6812 -1.20598 41.1453 1.42414 46.5279C1.67958 47.0511 2.31115 47.2682 2.83438 47.0124C3.35801 46.7565 3.57472 46.1249 3.31929 45.6017C1.08467 41.0282 2.00299 35.536 5.60458 31.9344C7.85692 29.6821 10.8512 28.4416 14.0363 28.4416C17.2214 28.4416 20.2157 29.6821 22.4681 31.9344C24.72 34.1864 25.9605 37.1807 25.9605 40.3658C25.9605 43.5508 24.72 46.5452 22.4676 48.7975C18.866 52.3991 13.3738 53.3174 8.80037 51.0828C8.27714 50.827 7.64557 51.0441 7.39014 51.5673C7.13429 52.0909 7.351 52.7225 7.87463 52.9779C9.83528 53.9362 11.9389 54.4018 14.0273 54.4018C17.6705 54.4014 21.2651 52.9833 23.9594 50.2889C25.195 49.0534 26.1714 47.6279 26.8623 46.0784L31.4069 48.5738C31.5651 48.6607 31.7398 48.704 31.9145 48.704C32.0892 48.704 32.2643 48.6607 32.4221 48.5738L53.4532 37.0258C53.7906 36.8404 54.0003 36.4861 54.0003 36.1013V28.7716C54.0003 28.1891 53.5282 27.7169 52.9456 27.7169C52.3631 27.7169 51.891 28.1891 51.891 28.7716V35.4771L32.9725 45.8654V25.1754L39.2162 21.7468V27.1818C39.2162 27.555 39.4131 27.9003 39.734 28.0898C39.8997 28.1874 40.085 28.2364 40.2709 28.2364C40.4455 28.2364 40.6206 28.1932 40.7792 28.1058L45.286 25.6253C45.623 25.4399 45.8319 25.086 45.8319 24.7016V18.1139L51.891 14.7871V20.3345C51.891 20.9171 52.3631 21.3892 52.9456 21.3892C53.5282 21.3892 54.0003 20.9171 54.0003 20.3345V13.0049C54.0003 12.6201 53.7906 12.2653 53.4532 12.0804ZM31.9145 2.65944L50.7543 13.0049L44.8114 16.2682L25.9716 5.9228L31.9145 2.65944ZM31.9145 23.3499L13.0747 13.0049L19.2356 9.62162L38.0758 19.9666L31.9145 23.3499ZM40.2667 18.7636L21.427 8.41862L23.7802 7.12621L42.6204 17.4712L40.2667 18.7636ZM23.9594 30.4431C21.3087 27.7923 17.7846 26.3327 14.0363 26.3327C13.3273 26.3327 12.6269 26.385 11.9385 26.4876V14.7871L30.8635 25.1791V45.8691L27.5788 44.0654C27.9022 42.8748 28.0694 41.633 28.0694 40.3658C28.0694 36.6175 26.6098 33.0934 23.9594 30.4431ZM43.7229 24.0783L41.3255 25.3979V20.5887L43.7229 19.2724V24.0783Z" fill="#095FAF"/>
<path d="M52.9453 23.4927C52.668 23.4927 52.3957 23.6056 52.1996 23.8017C52.0035 23.9978 51.8906 24.2697 51.8906 24.5474C51.8906 24.8246 52.0035 25.0965 52.1996 25.2926C52.3957 25.4892 52.668 25.6016 52.9453 25.6016C53.2226 25.6016 53.4949 25.4892 53.691 25.2926C53.8871 25.0965 54 24.8246 54 24.5474C54 24.2697 53.8871 23.9978 53.691 23.8017C53.4949 23.6056 53.2226 23.4927 52.9453 23.4927Z" fill="#095FAF"/>
<path d="M10.4896 41.4201C10.7594 41.4201 11.0297 41.3171 11.2353 41.1115C11.6472 40.6995 11.6472 40.0317 11.2353 39.6197L10.5048 38.8889H16.7382C18.2502 38.8889 19.4804 40.119 19.4804 41.631C19.4804 43.143 18.2502 44.3732 16.7382 44.3732H13.0447C12.4622 44.3732 11.99 44.8454 11.99 45.4279C11.99 46.0101 12.4622 46.4822 13.0447 46.4822H16.7382C19.4132 46.4822 21.5897 44.3061 21.5897 41.631C21.5897 38.956 19.4132 36.7799 16.7382 36.7799H10.5048L11.2353 36.049C11.6472 35.637 11.6472 34.9692 11.2353 34.5572C10.8237 34.1456 10.1559 34.1456 9.74386 34.5572L7.21261 37.0885C6.80104 37.5005 6.80104 38.1683 7.21261 38.5803L9.74386 41.1111C9.94986 41.3171 10.2197 41.4201 10.4896 41.4201Z" fill="#095FAF"/>
<path d="M4.85936 50.599C4.55943 50.599 4.26157 50.4713 4.05351 50.2237L4.05145 50.2212C3.67655 49.7754 3.73422 49.1105 4.17999 48.7356C4.62576 48.3603 5.29112 48.4179 5.66603 48.8637C6.04053 49.3099 5.98409 49.9761 5.53832 50.351C5.34015 50.5174 5.09914 50.599 4.85936 50.599Z" fill="#095FAF"/>
</g>
<defs>
<clipPath id="clip0_3_4637">
<rect width="54" height="54" fill="white" transform="translate(0 0.401367)"/>
</clipPath>
</defs>
</svg>
