<svg width="56" height="57" viewBox="0 0 56 57" fill="none" xmlns="http://www.w3.org/2000/svg">
<g clip-path="url(#clip0_3_4611)">
<circle cx="37.7344" cy="40.0609" r="14.5687" fill="#009ADB"/>
<path d="M40.6816 24.6433V14.0455C40.6816 13.7421 40.5414 13.4619 40.3432 13.2401L28.4615 0.763245C28.2397 0.529968 27.9244 0.401367 27.6095 0.401367H8.77142C5.29363 0.401367 2.51568 3.23743 2.51568 6.71564V42.3373C2.51568 45.8155 5.29363 48.605 8.77142 48.605H23.6413C26.4538 53.2735 31.5663 56.4014 37.3901 56.4014C46.237 56.4014 53.4618 49.2117 53.4618 40.3531C53.4737 32.6149 47.9178 26.1489 40.6816 24.6433ZM28.7768 4.49823L36.7483 12.8898H31.5778C30.0372 12.8898 28.7768 11.6179 28.7768 10.0772V4.49823ZM8.77142 46.2705C6.58904 46.2705 4.85015 44.5197 4.85015 42.3373V6.71564C4.85015 4.5213 6.58904 2.73584 8.77142 2.73584H26.4423V10.0772C26.4423 12.9133 28.7418 15.2242 31.5778 15.2242H38.3471V24.3395C37.9972 24.328 37.7169 24.293 37.4136 24.293C33.3402 24.293 29.5937 25.8571 26.7692 28.3082H11.9463C11.3041 28.3082 10.779 28.8333 10.779 29.475C10.779 30.1172 11.3041 30.6423 11.9463 30.6423H24.5983C23.7695 31.8095 23.0807 32.9767 22.5441 34.2606H11.9463C11.3041 34.2606 10.779 34.7857 10.779 35.4279C10.779 36.0696 11.3041 36.5951 11.9463 36.5951H21.7853C21.4935 37.7623 21.3418 39.0577 21.3418 40.3531C21.3418 42.4539 21.7503 44.5316 22.4856 46.2825H8.77142V46.2705ZM37.402 54.0789C29.8389 54.0789 23.6879 47.9278 23.6879 40.3647C23.6879 32.8016 29.827 26.6505 37.402 26.6505C44.9767 26.6505 51.1158 32.8016 51.1158 40.3647C51.1158 47.9278 44.9651 54.0789 37.402 54.0789Z" fill="#095FAF"/>
<path d="M11.9463 24.7949H23.7695C24.4117 24.7949 24.9367 24.2694 24.9367 23.6277C24.9367 22.9855 24.4117 22.4604 23.7695 22.4604H11.9463C11.3042 22.4604 10.7791 22.9855 10.7791 23.6277C10.7791 24.2694 11.3042 24.7949 11.9463 24.7949Z" fill="#095FAF"/>
<path d="M37.0166 33.1635C37.1101 33.1866 37.2033 33.1985 37.2968 33.1985C37.4135 33.1985 37.5186 33.1866 37.6237 33.1515C39.1643 33.2802 40.3666 34.564 40.3666 36.1282C40.3666 36.7699 40.8917 37.295 41.5334 37.295C42.1756 37.295 42.7007 36.7699 42.7007 36.1282C42.7007 33.5604 40.8802 31.4127 38.4641 30.9106V30.1638C38.4641 29.5217 37.9386 28.9966 37.2968 28.9966C36.6547 28.9966 36.1296 29.5217 36.1296 30.1638V30.9576C33.7951 31.5178 32.0562 33.6305 32.0562 36.1282C32.0562 39.0693 34.4488 41.4504 37.3784 41.4504C39.0242 41.4504 40.3666 42.7924 40.3666 44.4381C40.3666 46.0839 39.0357 47.4378 37.3784 47.4378C35.7327 47.4378 34.3907 46.0954 34.3907 44.4496C34.3907 43.8079 33.8652 43.2824 33.2235 43.2824C32.5813 43.2824 32.0562 43.8079 32.0562 44.4496C32.0562 46.9593 33.7951 49.0601 36.1296 49.6202V50.8224C36.1296 51.4646 36.6547 51.9897 37.2968 51.9897C37.9386 51.9897 38.4641 51.4646 38.4641 50.8224V49.6552C40.8802 49.1532 42.7007 47.0059 42.7007 44.4381C42.7007 41.4969 40.3081 39.1159 37.3784 39.1159C35.7327 39.1159 34.3907 37.7735 34.3907 36.1282C34.3907 34.6106 35.5345 33.3387 37.0166 33.1635Z" fill="#095FAF"/>
</g>
<defs>
<clipPath id="clip0_3_4611">
<rect width="56" height="56" fill="white" transform="translate(0 0.401367)"/>
</clipPath>
</defs>
</svg>
