<svg width="56" height="57" viewBox="0 0 56 57" fill="none" xmlns="http://www.w3.org/2000/svg">
<g clip-path="url(#clip0_205_1073)">
<path d="M35.6125 4.44824H27.5188L17.8063 14.1607L22.6625 16.9936L27.5188 12.1373L37.636 22.2545L41.2781 26.7061L46.5391 27.5154L48.9672 23.0639V7.68574L44.9203 4.44824H35.6125Z" fill="#009ADB"/>
<path d="M52.2812 12.0468H50.0916L50.0938 8.13239C50.095 5.50439 47.9584 3.36517 45.33 3.36389L28.7118 3.35449C28.7109 3.35449 28.7105 3.35449 28.7097 3.35449C27.7637 3.35449 26.8742 3.72278 26.2051 4.39185L1.39581 29.2012C0.495605 30.1014 0 31.2981 0 32.5713C0 33.8445 0.495605 35.0412 1.39581 35.9414L17.4962 52.0417C18.4254 52.971 19.6461 53.4354 20.8663 53.4354C22.0869 53.4354 23.3076 52.971 24.2368 52.0417L39.8569 36.4216C40.2842 35.9944 40.2842 35.3018 39.8569 34.875C39.4297 34.4478 38.7371 34.4478 38.3099 34.875L22.6898 50.4951C21.6844 51.5004 20.0485 51.5004 19.0432 50.4951L2.94287 34.3948C2.45581 33.9077 2.1875 33.26 2.1875 32.5713C2.1875 31.8826 2.45581 31.2349 2.94287 30.7478L27.7518 5.9389C28.0077 5.68298 28.3478 5.54199 28.7097 5.54199H28.7105L45.3287 5.55139C46.7505 5.55182 47.9071 6.70966 47.9062 8.13153L47.9011 17.2968H42.9745C42.5503 17.2968 42.1662 17.1234 41.8885 16.8439C42.3461 16.6478 42.775 16.3646 43.148 15.9916C44.7198 14.4193 44.7198 11.8618 43.148 10.29C41.5757 8.71771 39.0182 8.71771 37.446 10.29C35.8741 11.8618 35.8741 14.4193 37.446 15.9916C38.0287 16.5743 38.7474 16.9405 39.5006 17.0913C40.0359 18.4888 41.3907 19.4843 42.9745 19.4843H47.8998L47.8969 24.7275C47.8969 25.0894 47.7559 25.429 47.4999 25.6845L44.4973 28.6876C44.07 29.1149 44.07 29.8074 44.4973 30.2347C44.9241 30.6615 45.6166 30.6615 46.0439 30.2347L49.047 27.2316C49.7152 26.5629 50.0839 25.6743 50.0844 24.7288L50.0873 19.4843H52.2812C54.3316 19.4843 56 17.8163 56 15.7656C56 13.7152 54.3316 12.0468 52.2812 12.0468ZM38.993 11.8366C39.3528 11.4769 39.8249 11.2974 40.2974 11.2974C40.7695 11.2974 41.2416 11.4773 41.6014 11.8366C41.715 11.9507 41.809 12.0767 41.8868 12.2096C40.6862 12.5775 39.7429 13.5383 39.3981 14.7491C39.2532 14.6684 39.1161 14.568 38.993 14.4449C38.274 13.7255 38.274 12.5557 38.993 11.8366ZM52.2812 17.2968H50.0886L50.0903 14.2343H52.2812C53.1255 14.2343 53.8125 14.9213 53.8125 15.7656C53.8125 16.6098 53.1255 17.2968 52.2812 17.2968Z" fill="#095FAF"/>
<path d="M17.6546 30.9503C17.7892 31.4344 18.2288 31.7509 18.7074 31.7509C18.8048 31.7509 18.9035 31.7381 19.0013 31.7108L30.2293 28.5855C30.8112 28.4235 31.1518 27.8203 30.9898 27.2384C30.8279 26.6569 30.2251 26.3164 29.6427 26.4783L18.4147 29.6032C17.8332 29.7655 17.4927 30.3684 17.6546 30.9503Z" fill="#095FAF"/>
<path d="M22.597 32.3937C21.9878 33.003 21.6524 33.8126 21.6524 34.6744C21.6524 35.5357 21.9878 36.3453 22.597 36.9546C23.226 37.5831 24.0514 37.8975 24.8773 37.8975C25.7031 37.8975 26.529 37.5831 27.1579 36.9546C28.4153 35.6972 28.4153 33.6511 27.1579 32.3937C25.9005 31.1363 23.8544 31.1363 22.597 32.3937ZM25.6108 35.4075C25.2062 35.8121 24.5483 35.8121 24.1437 35.4075C23.9476 35.2118 23.8399 34.9512 23.8399 34.6739C23.8399 34.3971 23.948 34.1365 24.1437 33.9404C24.3462 33.7383 24.6119 33.637 24.8773 33.637C25.143 33.637 25.4088 33.7383 25.6108 33.9404C26.0154 34.345 26.0154 35.0033 25.6108 35.4075Z" fill="#095FAF"/>
<path d="M27.6996 25.8815C28.957 24.6237 28.957 22.578 27.6996 21.3206C27.0904 20.7114 26.2803 20.376 25.419 20.376C24.5577 20.376 23.7476 20.7114 23.1388 21.3206C21.8814 22.578 21.8814 24.6237 23.1388 25.8815C23.7677 26.5099 24.5931 26.8244 25.419 26.8244C26.2449 26.8244 27.0707 26.5099 27.6996 25.8815ZM24.6854 22.8672C24.8815 22.6711 25.1421 22.5635 25.419 22.5635C25.6963 22.5635 25.9569 22.6711 26.1526 22.8672C26.5572 23.2719 26.5572 23.9298 26.1526 24.3344C25.7484 24.739 25.09 24.739 24.6854 24.3344C24.2812 23.9298 24.2812 23.2719 24.6854 22.8672Z" fill="#095FAF"/>
<path d="M10.8785 28.6901C10.4512 28.2629 9.75867 28.2629 9.33142 28.6901L6.22363 31.7979C6.01855 32.003 5.9032 32.2811 5.9032 32.5712C5.9032 32.8613 6.01855 33.1395 6.22363 33.3445L20.0933 47.2142C20.3065 47.4274 20.5868 47.5342 20.8666 47.5342C21.1465 47.5342 21.4263 47.4274 21.64 47.2142L42.3768 26.477C42.804 26.0497 42.804 25.3572 42.3768 24.9299L28.5075 11.0607C28.3024 10.8556 28.0243 10.7402 27.7342 10.7402C27.4441 10.7402 27.166 10.8556 26.9609 11.0607L15.5188 22.5027C15.0916 22.93 15.0916 23.6226 15.5188 24.0498C15.9456 24.4766 16.6382 24.4766 17.0654 24.0498L27.7342 13.381L40.0568 25.7037L20.8666 44.8939L8.54401 32.5712L10.8785 30.2368C11.3053 29.8095 11.3057 29.1174 10.8785 28.6901Z" fill="#095FAF"/>
<path d="M42.1772 31.4609C41.8893 31.4609 41.6073 31.578 41.4039 31.7814C41.2006 31.9847 41.0835 32.2672 41.0835 32.5547C41.0835 32.8422 41.2006 33.1246 41.4039 33.328C41.6073 33.5314 41.8893 33.6484 42.1772 33.6484C42.4648 33.6484 42.7468 33.5314 42.9506 33.328C43.1539 33.1246 43.271 32.8422 43.271 32.5547C43.271 32.2672 43.1539 31.9847 42.9506 31.7814C42.7468 31.578 42.4648 31.4609 42.1772 31.4609Z" fill="#095FAF"/>
<path d="M13.9714 27.1429C14.176 26.9396 14.2922 26.6584 14.2922 26.3696C14.2922 26.0821 14.176 25.801 13.9714 25.5963C13.768 25.3929 13.4869 25.2759 13.1985 25.2759C12.9105 25.2759 12.6285 25.3929 12.4252 25.5963C12.2214 25.7997 12.1047 26.0821 12.1047 26.3696C12.1047 26.6584 12.2214 26.9396 12.4252 27.1429C12.6294 27.3476 12.9105 27.4634 13.1985 27.4634C13.4869 27.4634 13.768 27.3476 13.9714 27.1429Z" fill="#095FAF"/>
</g>
<defs>
<clipPath id="clip0_205_1073">
<rect width="56" height="56" fill="white" transform="translate(0 0.401367)"/>
</clipPath>
</defs>
</svg>
